<svg width="14" height="14" viewBox="0 0 14 14" fill="none" xmlns="http://www.w3.org/2000/svg">
<g clip-path="url(#clip0_2057_289)">
<path d="M7.00172 0.878052C10.3841 0.878052 13.1267 3.62063 13.1267 7.00305C13.1267 10.3855 10.3841 13.1281 7.00172 13.1281C3.6193 13.1281 0.876724 10.3855 0.876724 7.00305C0.876724 3.62063 3.6193 0.878052 7.00172 0.878052ZM4.74001 4.73059C4.68009 4.7308 4.63074 4.78003 4.63063 4.83997C4.63092 4.86593 4.64048 4.89122 4.657 4.91125L6.43532 7.02942L4.657 9.14856C4.64079 9.16892 4.63073 9.19314 4.63063 9.21887C4.63063 9.28026 4.68003 9.32804 4.74001 9.32825L5.6443 9.32434L7.00172 7.70618L8.3611 9.32629L9.26344 9.3302C9.32336 9.32999 9.37271 9.28076 9.37282 9.22083C9.37282 9.19485 9.36286 9.17004 9.34645 9.14954L7.56911 7.0304L9.34547 4.91223C9.36159 4.89191 9.37077 4.86757 9.37086 4.84192C9.37086 4.7804 9.32165 4.73254 9.26149 4.73254L8.35915 4.73645L7.00172 6.35461L5.6443 4.7345L4.74001 4.73059Z" fill="black" fill-opacity="0.25"/>
</g>
<defs>
<clipPath id="clip0_2057_289">
<rect width="14" height="14" fill="white"/>
</clipPath>
</defs>
</svg>
